[Header]
FileType HTR
DataType HTRS
FileVersion 1
NumSegments 64
NumFrames 3
DataFrameRate 30
EulerRotationOrder ZYX
CalibrationUnits mm
RotationUnits Degrees
GlobalAxisofGravity Y
BoneLengthAxis Y
ScaleFactor 1.0
[SegmentNames&Hierarchy]
Hips	GLOBAL
Spine	Hips
Spine1	Spine
Spine2	Spine1
Neck	Spine2
Head	Neck
LeftEye	Head
RightEye	Head
LeftShoulder	Spine2
LeftArm	LeftShoulder
LeftForeArm	LeftArm
LeftHand	LeftForeArm
LeftHandThumb1	LeftHand
LeftHandThumb2	LeftHandThumb1
LeftHandThumb3	LeftHandThumb2
LeftHandThumb4	LeftHandThumb3
LeftHandIndex1	LeftHand
LeftHandIndex2	LeftHandIndex1
LeftHandIndex3	LeftHandIndex2
LeftHandIndex4	LeftHandIndex3
LeftHandMiddle1	LeftHand
LeftHandMiddle2	LeftHandMiddle1
LeftHandMiddle3	LeftHandMiddle2
LeftHandMiddle4	LeftHandMiddle3
LeftHandRing1	LeftHand
LeftHandRing2	LeftHandRing1
LeftHandRing3	LeftHandRing2
LeftHandRing4	LeftHandRing3
LeftHandPinky1	LeftHand
LeftHandPinky2	LeftHandPinky1
LeftHandPinky3	LeftHandPinky2
LeftHandPinky4	LeftHandPinky3
RightShoulder	Spine2
RightArm	RightShoulder
RightForeArm	RightArm
RightHand	RightForeArm
RightHandPinky1	RightHand
RightHandPinky2	RightHandPinky1
RightHandPinky3	RightHandPinky2
RightHandPinky4	RightHandPinky3
RightHandRing1	RightHand
RightHandRing2	RightHandRing1
RightHandRing3	RightHandRing2
RightHandRing4	RightHandRing3
RightHandMiddle1	RightHand
RightHandMiddle2	RightHandMiddle1
RightHandMiddle3	RightHandMiddle2
RightHandMiddle4	RightHandMiddle3
RightHandIndex1	RightHand
RightHandIndex2	RightHandIndex1
RightHandIndex3	RightHandIndex2
RightHandIndex4	RightHandIndex3
RightHandThumb1	RightHand
RightHandThumb2	RightHandThumb1
RightHandThumb3	RightHandThumb2
RightHandThumb4	RightHandThumb3
LeftUpLeg	Hips
LeftLeg	LeftUpLeg
LeftFoot	LeftLeg
LeftToeBase	LeftFoot
RightUpLeg	Hips
RightLeg	RightUpLeg
RightFoot	RightLeg
RightToeBase	RightFoot
[BasePosition]
Hips	0	0	0	0	0	0	1
Spine	0	0	0	0	0	0	1
Spine1	0	0	0	0	0	0	1
Spine2	0	0	0	0	0	0	1
Neck	0	0	0	0	0	0	1
Head	0	0	0	0	0	0	1
LeftEye	0	0	0	0	0	0	1
RightEye	0	0	0	0	0	0	1
LeftShoulder	0	0	0	0	0	0	1
LeftArm	0	0	0	0	0	0	1
LeftForeArm	0	0	0	0	0	0	1
LeftHand	0	0	0	0	0	0	1
LeftHandThumb1	0	0	0	0	0	0	1
LeftHandThumb2	0	0	0	0	0	0	1
LeftHandThumb3	0	0	0	0	0	0	1
LeftHandThumb4	0	0	0	0	0	0	1
LeftHandIndex1	0	0	0	0	0	0	1
LeftHandIndex2	0	0	0	0	0	0	1
LeftHandIndex3	0	0	0	0	0	0	1
LeftHandIndex4	0	0	0	0	0	0	1
LeftHandMiddle1	0	0	0	0	0	0	1
LeftHandMiddle2	0	0	0	0	0	0	1
LeftHandMiddle3	0	0	0	0	0	0	1
LeftHandMiddle4	0	0	0	0	0	0	1
LeftHandRing1	0	0	0	0	0	0	1
LeftHandRing2	0	0	0	0	0	0	1
LeftHandRing3	0	0	0	0	0	0	1
LeftHandRing4	0	0	0	0	0	0	1
LeftHandPinky1	0	0	0	0	0	0	1
LeftHandPinky2	0	0	0	0	0	0	1
LeftHandPinky3	0	0	0	0	0	0	1
LeftHandPinky4	0	0	0	0	0	0	1
RightShoulder	0	0	0	0	0	0	1
RightArm	0	0	0	0	0	0	1
RightForeArm	0	0	0	0	0	0	1
RightHand	0	0	0	0	0	0	1
RightHandPinky1	0	0	0	0	0	0	1
RightHandPinky2	0	0	0	0	0	0	1
RightHandPinky3	0	0	0	0	0	0	1
RightHandPinky4	0	0	0	0	0	0	1
RightHandRing1	0	0	0	0	0	0	1
RightHandRing2	0	0	0	0	0	0	1
RightHandRing3	0	0	0	0	0	0	1
RightHandRing4	0	0	0	0	0	0	1
RightHandMiddle1	0	0	0	0	0	0	1
RightHandMiddle2	0	0	0	0	0	0	1
RightHandMiddle3	0	0	0	0	0	0	1
RightHandMiddle4	0	0	0	0	0	0	1
RightHandIndex1	0	0	0	0	0	0	1
RightHandIndex2	0	0	0	0	0	0	1
RightHandIndex3	0	0	0	0	0	0	1
RightHandIndex4	0	0	0	0	0	0	1
RightHandThumb1	0	0	0	0	0	0	1
RightHandThumb2	0	0	0	0	0	0	1
RightHandThumb3	0	0	0	0	0	0	1
RightHandThumb4	0	0	0	0	0	0	1
LeftUpLeg	0	0	0	0	0	0	1
LeftLeg	0	0	0	0	0	0	1
LeftFoot	0	0	0	0	0	0	1
LeftToeBase	0	0	0	0	0	0	1
RightUpLeg	0	0	0	0	0	0	1
RightLeg	0	0	0	0	0	0	1
RightFoot	0	0	0	0	0	0	1
RightToeBase	0	0	0	0	0	0	1
[Hips]
6	-310.199646	950.4859619	17.85703278	30.13259506	-82.0820694	-24.54824448	1.0
7	-370.0958252	932.7490234	16.70883369	38.15110779	-83.49310303	-32.43403244	1.0
8	-431.5014038	924.2550049	15.59928799	24.69202423	-83.47640991	-18.64030647	1.0
[Spine]
6	0	101.8159943	1.315000057	4.794908047	20.4011097	0.7054242492	1.0
7	0	101.8159943	1.315000057	4.86876297	21.75660706	0.509855926	1.0
8	0	101.8159943	1.315000057	4.616601944	21.41442299	-1.154903054	1.0
[Spine1]
6	0	100.8349991	-10.00800037	3.10605216	7.136882305	-0.2244607955	1.0
7	0	100.8349991	-10.00800037	3.252543688	7.306395054	-0.4122799337	1.0
8	0	100.8349991	-10.00800037	3.271865606	7.31887579	-0.9243120551	1.0
[Spine2]
6	0	91	-13.73399925	3.019817829	7.178805828	-0.3045976758	1.0
7	0	91	-13.73399925	3.161803722	7.346467972	-0.4758283198	1.0
8	0	91	-13.73399925	3.178830624	7.355702877	-0.9576773643	1.0
[Neck]
6	0	166.7169952	-25.16200066	4.074952602	5.731257915	1.727206469	1.0
7	0	166.7169952	-25.16200066	3.892161608	5.813407421	1.643484354	1.0
8	0	166.7169952	-25.16200066	3.885376453	5.794301033	1.658633113	1.0
[Head]
6	0	96.17900085	16.84999847	-12.34885883	35.09357834	-14.36064625	1.0
7	0	96.17900085	16.84999847	-13.74885845	35.1464386	-14.71913052	1.0
8	0	96.17900085	16.84999847	-14.5762043	34.79803467	-14.15736103	1.0
[LeftEye]
6	30.6760006	64.09500122	92.83599854	0	0	0	1.0
7	30.6760006	64.09500122	92.83599854	0	0	0	1.0
8	30.6760006	64.09500122	92.83599854	0	0	0	1.0
[RightEye]
6	-30.6760006	64.09500122	92.83499908	0	0	0	1.0
7	-30.6760006	64.09500122	92.83499908	0	0	0	1.0
8	-30.6760006	64.09500122	92.83499908	0	0	0	1.0
[LeftShoulder]
6	45.70400238	109.4599991	-26.28000069	1.327824473	7.390980244	-7.40865469	1.0
7	45.70400238	109.4599991	-26.28000069	1.271335125	7.408410549	-7.593502522	1.0
8	45.70400238	109.4599991	-26.28000069	1.206591964	7.072470188	-7.996621132	1.0
[LeftArm]
6	105.923996	-5.24600029	-22.32099915	14.50495052	4.050740242	-66.28804779	1.0
7	105.923996	-5.24600029	-22.32099915	14.09544373	3.479187727	-65.88049316	1.0
8	105.923996	-5.24600029	-22.32099915	14.34901714	2.750167131	-64.61264038	1.0
[LeftForeArm]
6	278.414978	-0.0009999999311	0	1.089256216e-06	-17.79196358	-0.000202241441	1.0
7	278.414978	-0.0009999999311	0	3.180535714e-06	-12.71019745	-0.0002016385552	1.0
8	278.414978	-0.0009999999311	0	2.624074966e-07	-8.973608017	-0.0002004372363	1.0
[LeftHand]
6	283.2879944	0	0	6.057112694	2.392145157	2.294840097	1.0
7	283.2879944	0	0	5.381917477	2.009784222	2.801223755	1.0
8	283.2879944	0	0	5.247494221	2.06939888	3.859312534	1.0
[LeftHandThumb1]
6	24.6609993	-15.75	26.8239994	30.58115005	-20.32058144	11.29641056	1.0
7	24.6609993	-15.75	26.8239994	30.58115005	-20.32058144	11.29641056	1.0
8	24.6609993	-15.75	26.8239994	30.58115005	-20.32058144	11.29641056	1.0
[LeftHandThumb2]
6	32.29800034	-18.64699936	18.64699936	12.17678165	20.42651558	-2.279858112	1.0
7	32.29800034	-18.64699936	18.64699936	12.57084942	20.67854881	-2.453296185	1.0
8	32.29800034	-18.64699936	18.64699936	12.90859795	21.36998177	-2.599036932	1.0
[LeftHandThumb3]
6	26.52600098	-15.31499958	15.31499958	-15.12362385	8.076992035	10.02015972	1.0
7	26.52600098	-15.31499958	15.31499958	-15.13569355	8.048631668	10.02875614	1.0
8	26.52600098	-15.31499958	15.31499958	-15.14880848	8.017813683	10.0380888	1.0
[LeftHandThumb4]
6	19.54599953	-11.28499985	11.28499985	0	0	0	1.0
7	19.54599953	-11.28499985	11.28499985	0	0	0	1.0
8	19.54599953	-11.28499985	11.28499985	0	0	0	1.0
[LeftHandIndex1]
6	91.09299469	-5.170999527	22.60099792	-1.239331961	-5.880642891	-23.52869034	1.0
7	91.09299469	-5.170999527	22.60099792	-1.202511072	-5.763186932	-23.23989868	1.0
8	91.09299469	-5.170999527	22.60099792	-1.213814139	-5.650406837	-23.48364639	1.0
[LeftHandIndex2]
6	36.76399994	0	0	-0.7144053578	2.798835754	-28.63288116	1.0
7	36.76399994	0	0	-0.7115222812	2.793568134	-28.57392311	1.0
8	36.76399994	0	0	-0.7099978924	2.790799141	-28.54278374	1.0
[LeftHandIndex3]
6	28.83100128	0	0	-0.2935376167	1.828678846	-18.23715401	1.0
7	28.83100128	0	0	-0.2916478515	1.82293272	-18.17763138	1.0
8	28.83100128	0	0	-0.2906464636	1.819882989	-18.14620018	1.0
[LeftHandIndex4]
6	23.92700005	0	0	0	0	0	1.0
7	23.92700005	0	0	0	0	0	1.0
8	23.92700005	0	0	0	0	0	1.0
[LeftHandMiddle1]
6	95.33399963	0	0	-2.427877188	2.445774555	-35.84270859	1.0
7	95.33399963	0	0	-2.361562252	2.620403767	-35.12388229	1.0
8	95.33399963	0	0	-2.336377144	2.730096817	-34.84994125	1.0
[LeftHandMiddle2]
6	36.98199844	0	0	-0.5697779059	2.516203165	-25.51431847	1.0
7	36.98199844	0	0	-0.5629513264	2.501840115	-25.35834694	1.0
8	36.98199844	0	0	-0.5597636104	2.495135307	-25.28543663	1.0
[LeftHandMiddle3]
6	29.50900078	0	0	-0.3999933004	2.124497652	-21.32256699	1.0
7	29.50900078	0	0	-0.3941581547	2.109532595	-21.16484642	1.0
8	29.50900078	0	0	-0.3914447129	2.102532148	-21.09103394	1.0
[LeftHandMiddle4]
6	28.3390007	0	0	0	0	0	1.0
7	28.3390007	0	0	0	0	0	1.0
8	28.3390007	0	0	0	0	0	1.0
[LeftHandRing1]
6	91.04499817	-0.4390000105	-18.65100098	-2.12629652	3.535856724	-32.52221298	1.0
7	91.04499817	-0.4390000105	-18.65100098	-2.075086594	3.638597727	-31.94789314	1.0
8	91.04499817	-0.4390000105	-18.65100098	-2.066100121	3.640541315	-31.84817696	1.0
[LeftHandRing2]
6	31.54000092	0	0	-0.852463603	3.037787914	-31.34410286	1.0
7	31.54000092	0	0	-0.8478626609	3.03023386	-31.257164	1.0
8	31.54000092	0	0	-0.8467081189	3.02832818	-31.23523903	1.0
[LeftHandRing3]
6	29.37700081	0	0	-0.9486381412	3.19008708	-33.11439133	1.0
7	29.37700081	0	0	-0.9437280893	3.182581663	-33.02627563	1.0
8	29.37700081	0	0	-0.9424948692	3.180685759	-33.00405121	1.0
[LeftHandRing4]
6	26.47500038	0	0	0	0	0	1.0
7	26.47500038	0	0	0	0	0	1.0
8	26.47500038	0	0	0	0	0	1.0
[LeftHandPinky1]
6	80.77799988	-4.887000084	-38.06099701	-1.850700021	2.882116556	-29.22694969	1.0
7	80.77799988	-4.887000084	-38.06099701	-1.790966988	3.056562662	-28.52246094	1.0
8	80.77799988	-4.887000084	-38.06099701	-1.758919477	3.14241457	-28.14492226	1.0
[LeftHandPinky2]
6	36	0	0	-0.4634565115	2.280308485	-22.97390556	1.0
7	36	0	0	-0.4639994502	2.281609774	-22.98758507	1.0
8	36	0	0	-0.4757238328	2.308921099	-23.27946663	1.0
[LeftHandPinky3]
6	21.14200211	0	0	-0.5285822749	2.428107262	-24.55954552	1.0
7	21.14200211	0	0	-0.5339794159	2.439880371	-24.68664742	1.0
8	21.14200211	0	0	-0.5414520502	2.456028938	-24.86136055	1.0
[LeftHandPinky4]
6	19.75699997	0	0	0	0	0	1.0
7	19.75699997	0	0	0	0	0	1.0
8	19.75699997	0	0	0	0	0	1.0
[RightShoulder]
6	-45.70000076	109.4620056	-26.28000069	-2.808324814	10.35751629	9.22340107	1.0
7	-45.70000076	109.4620056	-26.28000069	-2.547450542	10.44102955	9.461307526	1.0
8	-45.70000076	109.4620056	-26.28000069	-2.202429295	10.17651844	9.717002869	1.0
[RightArm]
6	-105.9280014	-5.248000145	-22.32099915	35.29174042	26.09131813	53.9234581	1.0
7	-105.9280014	-5.248000145	-22.32099915	37.56596375	28.65490723	55.05962372	1.0
8	-105.9280014	-5.248000145	-22.32099915	38.56340027	30.16593361	57.8609848	1.0
[RightForeArm]
6	-278.414978	0	0	2.183705874e-06	23.03277779	5.636755759e-06	1.0
7	-278.414978	0	0	-4.161871857e-06	22.9825058	1.908980948e-06	1.0
8	-278.414978	0	0	-3.297445801e-06	22.11565781	-1.258492193e-05	1.0
[RightHand]
6	-283.2879944	0	0.0009999999311	-0.9344366193	0.3555904925	-24.29571533	1.0
7	-283.2879944	0	0.0009999999311	-2.231300592	3.271226883	-23.04143143	1.0
8	-283.2879944	0	0.0009999999311	-3.647121191	6.316811562	-21.0491333	1.0
[RightHandPinky1]
6	-80.76699829	-4.885000229	-38.06000137	-2.06605196	-2.828727722	34.51211548	1.0
7	-80.76699829	-4.885000229	-38.06000137	-2.111208439	-2.840535402	35.08260727	1.0
8	-80.76699829	-4.885000229	-38.06000137	-2.201512575	-2.852102041	36.21166229	1.0
[RightHandPinky2]
6	-36	0	0.0009999999311	-0.3925983012	-1.867657423	23.76055145	1.0
7	-36	0	0.0009999999311	-0.3864788115	-1.853679657	23.57192993	1.0
8	-36	0	0.0009999999311	-0.381783098	-1.842865229	23.42615128	1.0
[RightHandPinky3]
6	-21.14200211	0	0	-0.1709489524	-1.247837067	15.60102177	1.0
7	-21.14200211	0	0	-0.1667019576	-1.232489824	15.40430546	1.0
8	-21.14200211	0	0	-0.1634407789	-1.220627189	15.25237846	1.0
[RightHandPinky4]
6	-19.75699997	0	0	0	0	0	1.0
7	-19.75699997	0	0	0	0	0	1.0
8	-19.75699997	0	0	0	0	0	1.0
[RightHandRing1]
6	-91.03599548	-0.4390000105	-18.65100098	-1.663603306	-6.131741047	29.28165817	1.0
7	-91.03599548	-0.4390000105	-18.65100098	-1.722440481	-6.169299126	30.06858253	1.0
8	-91.03599548	-0.4390000105	-18.65100098	-1.838985682	-6.500352859	31.60383224	1.0
[RightHandRing2]
6	-31.54000092	0	0	-0.3733769059	-1.823344588	23.14396286	1.0
7	-31.54000092	0	0	-0.3699018657	-1.815193892	23.03425598	1.0
8	-31.54000092	0	0	-0.3684100211	-1.811689377	22.98721313	1.0
[RightHandRing3]
6	-29.37700081	0	0	-0.2684354782	-1.55519259	19.58515739	1.0
7	-29.37700081	0	0	-0.2654419839	-1.546744227	19.47445488	1.0
8	-29.37700081	0	0	-0.2641145885	-1.542982578	19.42519379	1.0
[RightHandRing4]
6	-26.47500038	0	0	0	0	0	1.0
7	-26.47500038	0	0	0	0	0	1.0
8	-26.47500038	0	0	0	0	0	1.0
[RightHandMiddle1]
6	-95.32500458	0	0	-1.536589384	-1.862098217	27.57471848	1.0
7	-95.32500458	0	0	-1.626200676	-2.391699076	28.79016113	1.0
8	-95.32500458	0	0	-1.800820112	-3.08724618	31.08940506	1.0
[RightHandMiddle2]
6	-36.98199844	0	0	-0.2397979945	-1.472253799	18.50108337	1.0
7	-36.98199844	0	0	-0.2407234013	-1.47502172	18.53716087	1.0
8	-36.98199844	0	0	-0.241633445	-1.477731705	18.57249069	1.0
[RightHandMiddle3]
6	-29.50900078	0	0	-0.08597440273	-0.8911187053	11.0464859	1.0
7	-29.50900078	0	0	-0.08654029667	-0.8939902782	11.08264828	1.0
8	-29.50900078	0	0	-0.08709069341	-0.8967917562	11.11796188	1.0
[RightHandMiddle4]
6	-28.3390007	0	0.0009999999311	0	0	0	1.0
7	-28.3390007	0	0.0009999999311	0	0	0	1.0
8	-28.3390007	0	0.0009999999311	0	0	0	1.0
[RightHandIndex1]
6	-91.08300018	-5.167999744	22.60099792	-1.042161584	2.928863287	20.79756546	1.0
7	-91.08300018	-5.167999744	22.60099792	-1.076228738	1.791965961	22.32510376	1.0
8	-91.08300018	-5.167999744	22.60099792	-1.119747281	0.256267935	25.01083565	1.0
[RightHandIndex2]
6	-36.76399994	0	0	-0.1012716591	-0.964150548	11.9923954	1.0
7	-36.76399994	0	0	-0.1015888378	-0.9656284451	12.01092625	1.0
8	-36.76399994	0	0	-0.1022535563	-0.9687918425	12.05092144	1.0
[RightHandIndex3]
6	-28.83100128	0	0	-0.1054308042	-0.983496666	12.23676491	1.0
7	-28.83100128	0	0	-0.1057261825	-0.9849033952	12.25453758	1.0
8	-28.83100128	0	0	-0.1064083055	-0.9879986644	12.29367638	1.0
[RightHandIndex4]
6	-23.92700005	0	0	0	0	0	1.0
7	-23.92700005	0	0	0	0	0	1.0
8	-23.92700005	0	0	0	0	0	1.0
[RightHandThumb1]
6	-24.64799881	-15.72700024	26.82600021	-0.1902875453	0.8218618631	0.3671384752	1.0
7	-24.64799881	-15.72700024	26.82600021	-0.1902875453	0.8218618631	0.3671384752	1.0
8	-24.64799881	-15.72700024	26.82600021	-0.1902875453	0.8218618631	0.3671384752	1.0
[RightHandThumb2]
6	-32.29800034	-18.64699936	18.64699936	10.26041126	-3.043035269	-19.41727066	1.0
7	-32.29800034	-18.64699936	18.64699936	12.94863892	-2.659831285	-18.54653358	1.0
8	-32.29800034	-18.64699936	18.64699936	16.18345261	-4.652349472	-18.54756737	1.0
[RightHandThumb3]
6	-26.52600098	-15.31399918	15.31399918	1.500613213	4.129776955	-23.15220261	1.0
7	-26.52600098	-15.31399918	15.31399918	0.8749262691	5.574254513	-23.34774399	1.0
8	-26.52600098	-15.31399918	15.31399918	-0.4411669075	8.504486084	-24.55637741	1.0
[RightHandThumb4]
6	-19.54599953	-11.28499985	11.28499985	0	0	0	1.0
7	-19.54599953	-11.28499985	11.28499985	0	0	0	1.0
8	-19.54599953	-11.28499985	11.28499985	0	0	0	1.0
[LeftUpLeg]
6	82.07800293	-67.51699829	-15.99599934	-43.36058044	3.539289236	1.033126354	1.0
7	82.07800293	-67.51699829	-15.99599934	-46.28600311	2.86831212	0.6965548396	1.0
8	82.07800293	-67.51699829	-15.99599934	-46.68167114	0.5088741779	-0.7802625299	1.0
[LeftLeg]
6	0	-443.7049866	2.845999956	9.797458649	5.313028336	1.299144506	1.0
7	0	-443.7049866	2.845999956	16.2744751	5.370997429	2.102652788	1.0
8	0	-443.7049866	2.845999956	19.99091911	7.67654562	3.474296331	1.0
[LeftFoot]
6	0	-444.2789917	-29.8219986	-12.95670223	-1.196527719	-12.17311382	1.0
7	0	-444.2789917	-29.8219986	-7.55280304	-0.3935810626	-0.73160851	1.0
8	0	-444.2789917	-29.8219986	9.807602882	0.5754013062	4.035979271	1.0
[LeftToeBase]
6	0	-87.28699493	107.1060028	-7.0531106	1.66781283e-05	1.072305167e-06	1.0
7	0	-87.28699493	107.1060028	-10.34550571	2.248192141e-05	3.391968448e-06	1.0
8	0	-87.28699493	107.1060028	-12.53403854	-1.422852893e-05	-1.153121616e-06	1.0
[RightUpLeg]
6	-82.07800293	-67.51699829	-15.99599934	5.482962608	-10.37468147	5.173710346	1.0
7	-82.07800293	-67.51699829	-15.99599934	8.941344261	-11.24807549	3.843048096	1.0
8	-82.07800293	-67.51699829	-15.99599934	14.17926025	-12.39594555	1.771170259	1.0
[RightLeg]
6	0	-443.7049866	2.861999989	19.99507904	8.47681427	4.058368683	1.0
7	0	-443.7049866	2.861999989	20.92634392	8.52507782	4.511893272	1.0
8	0	-443.7049866	2.861999989	17.45650673	8.816209793	4.014785767	1.0
[RightFoot]
6	0	-444.2770081	-29.83799934	-31.85548973	10.74442768	-17.55404854	1.0
7	0	-444.2770081	-29.83799934	-31.75244141	13.79931355	-19.02264214	1.0
8	0	-444.2770081	-29.83799934	-26.1469593	15.7997961	-20.57563019	1.0
[RightToeBase]
6	0	-87.28699493	107.1060028	-8.82743454	-2.313695404e-05	3.176255916e-07	1.0
7	0	-87.28699493	107.1060028	-10.06794167	-3.361667768e-05	1.810964704e-06	1.0
8	0	-87.28699493	107.1060028	-16.86804771	0.3916680813	0.7059355378	1.0
[EndOfFile]
